<svg width="19" height="19" viewBox="0 0 19 19" fill="none" xmlns="http://www.w3.org/2000/svg">
<path d="M8.84711 13.3583C8.71174 13.3095 8.58605 13.2272 8.47002 13.1111L4.29302 8.93414C4.06097 8.70208 3.94958 8.43135 3.95886 8.12194C3.96815 7.81253 4.07953 7.5418 4.29302 7.30975C4.52508 7.07769 4.80084 6.95702 5.1203 6.94774C5.43976 6.93846 5.71514 7.04946 5.94642 7.28074L8.12194 9.45626V1.16028C8.12194 0.831536 8.23332 0.556164 8.4561 0.334164C8.67887 0.112164 8.95424 0.000777519 9.28221 4.00095e-06C9.61019 -0.000769517 9.88595 0.110617 10.1095 0.334164C10.333 0.557711 10.444 0.833083 10.4425 1.16028V9.45626L12.618 7.28074C12.8501 7.04869 13.1258 6.9373 13.4453 6.94658C13.7648 6.95586 14.0401 7.07692 14.2714 7.30975C14.4841 7.5418 14.5955 7.81253 14.6056 8.12194C14.6156 8.43135 14.5042 8.70208 14.2714 8.93414L10.0944 13.1111C9.97838 13.2272 9.85268 13.3095 9.71732 13.3583C9.58195 13.407 9.43692 13.431 9.28221 13.4302C9.12751 13.4294 8.98248 13.4055 8.84711 13.3583ZM2.32055 18.5644C1.6824 18.5644 1.1363 18.3374 0.682243 17.8834C0.228188 17.4293 0.000773518 16.8828 0 16.2439V13.9233C0 13.5946 0.111387 13.3192 0.33416 13.0972C0.556933 12.8752 0.832305 12.7638 1.16028 12.7631C1.48825 12.7623 1.76401 12.8737 1.98755 13.0972C2.2111 13.3208 2.3221 13.5961 2.32055 13.9233V16.2439H16.2439V13.9233C16.2439 13.5946 16.3553 13.3192 16.578 13.0972C16.8008 12.8752 17.0762 12.7638 17.4042 12.7631C17.7321 12.7623 18.0079 12.8737 18.2314 13.0972C18.455 13.3208 18.566 13.5961 18.5644 13.9233V16.2439C18.5644 16.882 18.3374 17.4285 17.8833 17.8834C17.4293 18.3382 16.8828 18.5652 16.2439 18.5644H2.32055Z" fill="#E0DC01"/>
</svg>
