<svg width="254" height="852" viewBox="0 0 254 852" fill="none" xmlns="http://www.w3.org/2000/svg">
<path d="M-438.208 416.762C-437.44 415.68 -437.6 415.382 -439.325 414.692C-441.038 414.006 -441.424 414.064 -441.916 415.078C-442.329 415.932 -442.012 416.52 -440.799 417.148C-439.341 417.904 -438.981 417.85 -438.208 416.762Z" fill="#E0DC01"/>
<path d="M-178.032 217.563C-178.921 216.059 -186.644 206.367 -189.058 203.726C-190.987 201.616 -190.928 203.452 -188.985 205.997C-187.965 207.333 -186.298 209.924 -185.281 211.756C-182.812 216.203 -181.771 217.334 -179.224 218.337L-177.075 219.183L-178.032 217.563Z" fill="#E0DC01"/>
<path d="M-350.367 441.353C-350.015 440.857 -352.248 439.892 -354.761 439.455C-355.716 439.288 -356.382 439.437 -356.24 439.786C-355.921 440.571 -350.785 441.941 -350.367 441.353Z" fill="#E0DC01"/>
<path d="M-245.92 333.968C-246.476 333.446 -247.585 332.738 -248.383 332.394C-249.181 332.051 -249.992 331.991 -250.184 332.262C-250.377 332.532 -249.268 333.241 -247.721 333.835C-245.542 334.673 -245.137 334.703 -245.92 333.968Z" fill="#E0DC01"/>
<path d="M-351.853 493.287C-351.381 492.623 -354.858 491.848 -359.689 491.54C-365.268 491.184 -363.733 492.488 -357.828 493.121C-354.933 493.431 -352.489 493.715 -352.397 493.751C-352.305 493.788 -352.06 493.579 -351.853 493.287Z" fill="#E0DC01"/>
<path d="M-233.028 356.599C-235.448 355.108 -240.862 352.958 -241.708 353.152C-242.92 353.43 -243.45 354.854 -242.977 356.563C-242.572 358.027 -242.112 358.351 -239.428 359.066C-236.286 359.903 -232.506 359.571 -231.664 358.385C-231.407 358.023 -232.021 357.22 -233.028 356.599Z" fill="#E0DC01"/>
<path d="M-131.996 285.318C-132.312 285.192 -133.335 285.089 -134.267 285.09C-135.285 285.091 -136.023 285.45 -136.111 285.985C-136.192 286.476 -136.482 287.193 -136.754 287.577C-137.109 288.076 -136.409 288.612 -134.298 289.457C-131.803 290.455 -131.24 290.488 -130.66 289.672C-129.981 288.716 -130.887 285.762 -131.996 285.318Z" fill="#E0DC01"/>
<path d="M-95.7256 238.731C-97.3886 237.233 -98.8463 235.969 -98.9657 235.921C-99.0844 235.873 -99.3483 236.068 -99.5511 236.354C-99.9109 236.861 -95.0596 241.911 -93.684 242.462C-91.9114 243.171 -92.9938 241.193 -95.7256 238.731Z" fill="#E0DC01"/>
<path d="M-186.632 383.932C-187.441 381.689 -190.894 379.143 -194.177 378.369C-196.056 377.926 -196.754 378.042 -197.337 378.895C-198.426 380.487 -197.471 383.082 -195.507 383.868C-193.981 384.479 -187.274 385.907 -186.342 385.82C-186.134 385.801 -186.264 384.951 -186.632 383.932Z" fill="#E0DC01"/>
<path d="M-371.345 642.442C-371.438 641.347 -372.699 641.075 -376.327 641.368C-380.35 641.693 -381.456 642.772 -378.84 643.818C-376.781 644.643 -371.244 643.626 -371.345 642.442Z" fill="#E0DC01"/>
<path d="M-71.4156 275.703C-71.834 275.025 -72.562 274.316 -73.0343 274.127C-73.5067 273.938 -74.0337 273.981 -74.2053 274.223C-74.5742 274.743 -73.3203 275.918 -71.761 276.513C-70.8075 276.878 -70.7604 276.767 -71.4156 275.703Z" fill="#E0DC01"/>
<path d="M-95.4304 316.405C-98.2014 315.306 -99.4414 315.243 -100.831 316.131C-101.334 316.452 -102.081 317.291 -102.492 317.996C-103.698 320.064 -100.96 322.403 -94.1305 325.136C-87.4588 327.807 -86.7073 327.57 -88.5061 323.359C-89.9539 319.968 -92.2446 317.667 -95.4304 316.405Z" fill="#E0DC01"/>
<path d="M-76.1052 337.421C-75.7381 336.903 -77.4681 335.042 -80.2846 332.925C-82.2452 331.451 -82.4696 332.839 -80.5558 334.597C-77.5794 337.33 -76.5189 338.003 -76.1052 337.421Z" fill="#E0DC01"/>
<path d="M39.0504 185.078C39.4264 183.585 38.9001 182.669 37.2841 182.009C35.9662 181.471 34.6951 182.853 35.2503 184.221C35.4525 184.72 36.3166 185.407 37.1708 185.749C38.4808 186.273 38.7754 186.168 39.0504 185.078Z" fill="#E0DC01"/>
<path d="M-299.352 682.172C-300.469 681.782 -302.333 681.65 -303.497 681.879C-305.998 682.369 -307.185 683.595 -306.081 684.551C-304.051 686.308 -297.336 686.63 -297.065 684.983C-296.996 684.565 -296.564 684.205 -296.105 684.183C-294.624 684.112 -294.478 683.116 -295.931 682.995C-296.696 682.932 -298.236 682.561 -299.352 682.172Z" fill="#E0DC01"/>
<path d="M-63.1967 405.774C-67.1011 405.951 -71.3036 406.803 -73.8454 407.933C-76.7323 409.217 -76.8629 409.847 -74.4412 410.798C-70.5188 412.338 -62.3592 412.649 -52.9076 411.619C-47.6669 411.048 -42.4563 410.397 -41.3275 410.172C-40.1983 409.948 -34.9685 409.922 -29.7048 410.116C-24.4407 410.309 -20.0282 410.319 -19.8985 410.136C-19.4002 409.434 -24.4171 408.796 -32.7573 408.502C-37.535 408.333 -41.6361 407.948 -41.8707 407.646C-42.3103 407.078 -59.2236 405.594 -63.1967 405.774Z" fill="#E0DC01"/>
<path d="M-239.466 648.678C-238.561 648.088 -239.651 647.264 -240.942 647.56C-242.071 647.818 -242.246 648.514 -241.282 648.9C-240.779 649.101 -239.962 649.001 -239.466 648.678Z" fill="#E0DC01"/>
<path d="M13.9774 328.911C14.8513 328.711 13.7149 327.205 12.2334 326.6C11.6051 326.343 10.9364 326.35 10.7476 326.616C10.3287 327.206 13.0324 329.127 13.9774 328.911Z" fill="#E0DC01"/>
<path d="M-55.7301 478.414C-55.4126 477.967 -58.6757 475.319 -60.407 474.619C-62.3393 473.837 -61.6344 475.296 -59.3176 476.873C-56.2558 478.957 -56.1486 479.003 -55.7301 478.414Z" fill="#E0DC01"/>
<path d="M98.7809 303.165C98.1356 301.98 95.4464 300.238 94.3457 300.291C92.1018 300.398 91.1303 304.71 93.0461 306.055C95.7407 307.947 96.4588 307.926 97.885 305.917C98.6304 304.867 99.0339 303.628 98.7809 303.165Z" fill="#E0DC01"/>
<path d="M-152.017 706.982C-151.838 705.897 -152.454 705.722 -156.049 705.839C-159.715 705.959 -161.315 707.464 -158.832 708.458C-156.966 709.205 -152.214 708.175 -152.017 706.982Z" fill="#E0DC01"/>
<path d="M137.996 312.772C138.15 311.839 135.84 310.526 134.559 310.818C133.361 311.093 133.051 312.103 133.732 313.522C134.866 315.889 137.56 315.415 137.996 312.772Z" fill="#E0DC01"/>
<path d="M182.849 270.742C183.158 269.777 181.552 268.713 180.24 269.013C179.357 269.215 179.29 269.342 179.293 270.784C179.299 273.081 182.11 273.048 182.849 270.742Z" fill="#E0DC01"/>
<path d="M179.953 280.493C180.838 279.246 180.746 278.914 179.362 278.359C178.069 277.842 177.544 277.953 176.885 278.882C176.128 279.948 176.694 281.087 178.302 281.73C178.633 281.863 179.376 281.306 179.953 280.493Z" fill="#E0DC01"/>
<path d="M66.9453 445.411C67.7968 444.536 67.6421 444.267 65.882 443.563C64.1219 442.858 63.7387 442.912 63.2454 443.931C62.8234 444.804 63.1074 445.299 64.3086 445.779C65.5098 446.26 66.2149 446.161 66.9453 445.411Z" fill="#E0DC01"/>
<path d="M-24.5443 572.137C-23.9034 571.234 -24.0198 570.766 -24.9822 570.38C-25.9446 569.995 -26.5274 570.184 -27.1683 571.087C-27.8092 571.99 -27.6928 572.458 -26.7304 572.843C-25.768 573.228 -25.1852 573.04 -24.5443 572.137Z" fill="#E0DC01"/>
<path d="M46.3055 480.635C46.9124 479.78 45.484 477.144 44.1176 476.597C43.0968 476.188 42.5723 476.4 41.7566 477.549C40.766 478.945 40.8533 479.085 43.3317 480.077C44.775 480.655 46.1132 480.906 46.3055 480.635Z" fill="#E0DC01"/>
<path d="M-119.49 713.774C-119.291 712.57 -121.162 711.894 -123.345 712.381C-126.006 712.975 -126.328 713.875 -124.185 714.733C-122.045 715.589 -119.71 715.112 -119.49 713.774Z" fill="#E0DC01"/>
<path d="M106.63 401.106C104.901 399.687 103.09 398.367 102.605 398.173C100.95 397.511 101.028 398.788 102.739 400.359C103.678 401.222 106.233 403.096 108.417 404.525C110.6 405.954 114.057 408.493 116.098 410.167C118.14 411.842 120.023 413.162 120.283 413.103C121.548 412.814 119.375 410.491 114.817 407.261C112.043 405.294 108.359 402.525 106.63 401.106Z" fill="#E0DC01"/>
<path d="M40.6455 497.861C41.7063 496.875 40.015 495.061 37.6184 494.613C36.2002 494.348 35.5628 494.549 35.1587 495.384C34.7072 496.319 35.0614 496.691 37.2289 497.558C39.1583 498.33 40.0544 498.41 40.6455 497.861Z" fill="#E0DC01"/>
<path d="M86.3569 466.926C86.6426 464.72 84.8008 462.518 81.5981 461.237C80.3168 460.724 79.1237 460.509 78.9461 460.76C78.5905 461.261 85.0618 469.019 85.7121 468.871C85.9347 468.819 86.2249 467.944 86.3569 466.926Z" fill="#E0DC01"/>
<path d="M56.5458 501.809C57.0119 501.153 56.8075 500.649 55.9331 500.299C55.0586 499.949 54.3878 500.103 53.9217 500.759C53.4556 501.416 53.66 501.92 54.5345 502.269C55.409 502.619 56.0797 502.466 56.5458 501.809Z" fill="#E0DC01"/>
<path d="M-75.2531 704.094C-74.8762 703.563 -80.1938 702.571 -83.3962 702.576C-85.5672 702.578 -85.966 703.126 -85.19 705.039C-83.9534 708.086 -76.3306 709.225 -75.6029 706.471C-75.4188 705.775 -73.8148 705.35 -69.9489 704.972C-64.8741 704.477 -62.93 703.827 -64.5668 703.172C-64.9597 703.015 -67.6058 703.271 -70.4466 703.741C-73.2871 704.213 -75.45 704.371 -75.2531 704.094Z" fill="#E0DC01"/>
<path d="M184.374 340.218C185.484 337.447 184.356 335.967 180.886 335.644C178.892 335.458 177.771 337.92 178.598 340.669L179.356 343.186L181.543 342.504C183.112 342.014 183.912 341.368 184.374 340.218Z" fill="#E0DC01"/>
<path d="M18.0356 588.101C18.5217 587.416 18.1428 587.005 16.3689 586.295C14.2552 585.45 13.9896 585.494 13.0239 586.854C12.1624 588.068 12.2446 588.44 13.4839 588.936C15.2932 589.66 17.1741 589.315 18.0356 588.101Z" fill="#E0DC01"/>
</svg>
